<svg width="36" height="45" viewBox="0 0 36 45" fill="none" xmlns="http://www.w3.org/2000/svg">
<path d="M18.0005 0C18.0005 0 11.5559 7.90335 0 7.61029V15.5698H36V7.61029C24.4451 7.90242 17.9995 0 17.9995 0H18.0005Z" fill="#FFB600"/>
<path d="M0 7.6476V36.6225C11.5549 36.3304 18.0005 44.2328 18.0005 44.2328V15.2579C18.0005 15.2579 11.5559 7.35454 0 7.6476Z" fill="#00A0A9"/>
<path d="M36 7.6476V36.6225C24.445 36.3304 17.9995 44.2328 17.9995 44.2328V15.2579C17.9995 15.2579 24.4441 7.35454 36 7.6476Z" fill="#006E96"/>
<path d="M12.8066 26.2148C12.9714 26.9442 13.0519 27.7016 13.0435 28.4891C13.035 29.2933 12.9311 30.0124 12.7354 30.6416C12.536 31.2736 12.2579 31.7933 11.8937 32.2043C11.5323 32.6135 11.1016 32.8878 10.6016 33.032C10.1035 33.1734 9.5548 33.1575 8.9565 32.9861C8.06794 32.7315 7.34324 32.2989 6.77771 31.6856C6.21219 31.0733 5.76651 30.3289 5.44629 29.4544C5.12607 28.5761 4.90885 27.5996 4.79369 26.5135C4.67852 25.4273 4.62702 24.2804 4.6392 23.065C4.6495 22.0744 4.73563 21.0941 4.90229 20.1307C5.06895 19.1635 5.33393 18.318 5.70096 17.5961C6.06519 16.8695 6.54177 16.3311 7.1307 15.9763C7.71683 15.6214 8.43872 15.569 9.29169 15.8134C9.77389 15.9519 10.2299 16.1935 10.654 16.5362C11.0754 16.8789 11.4508 17.2946 11.7757 17.7824C12.0997 18.2702 12.3628 18.8198 12.5659 19.4322C12.7673 20.0436 12.874 20.6915 12.8927 21.375L10.9209 20.8095C10.8825 20.1194 10.7111 19.5202 10.4106 19.0146C10.1091 18.509 9.69993 18.1841 9.18028 18.0352C8.82448 17.9332 8.5155 17.935 8.25333 18.0399C7.99117 18.1485 7.76927 18.3273 7.58949 18.5736C7.40692 18.8226 7.25992 19.1232 7.14475 19.4781C7.03239 19.8339 6.9397 20.2159 6.8648 20.6203C6.7927 21.0258 6.73745 21.4321 6.70562 21.8422C6.67378 22.2523 6.64195 22.6343 6.6148 22.9901L6.64944 23.0482C6.92097 22.4611 7.29268 22.0754 7.76271 21.8853C8.23273 21.698 8.7374 21.6802 9.27952 21.8357C9.87782 22.007 10.4143 22.3029 10.8834 22.7214C11.3525 23.1399 11.7495 23.6455 12.0725 24.2364C12.3955 24.8281 12.639 25.4863 12.8066 26.2129V26.2148ZM10.9284 29.1295C11.021 28.7372 11.0688 28.3177 11.0735 27.8758C11.0782 27.4376 11.0398 26.9966 10.9555 26.564C10.874 26.1286 10.7467 25.7316 10.5707 25.373C10.3947 25.0144 10.1746 24.7017 9.91246 24.4358C9.64936 24.1699 9.33945 23.9873 8.98178 23.8852C8.62411 23.7832 8.31231 23.7832 8.03704 23.8881C7.76551 23.9901 7.53518 24.1699 7.34792 24.4246C7.16066 24.6792 7.01835 24.9985 6.92003 25.3824C6.82453 25.7635 6.77491 26.1857 6.77023 26.6417C6.76555 27.0977 6.80674 27.5453 6.89288 27.9825C6.98183 28.4198 7.11666 28.8261 7.29831 29.1997C7.47901 29.577 7.70372 29.8982 7.9715 30.165C8.2421 30.4328 8.55389 30.6163 8.90968 30.7184C9.26829 30.8214 9.58008 30.8139 9.84692 30.6931C10.1138 30.5723 10.3385 30.3766 10.5211 30.1145C10.7036 29.8514 10.8385 29.5237 10.9284 29.1304" fill="white"/>
<path d="M29.267 23.0978C30.6855 23.3946 31.5114 24.5893 31.5076 26.5846C31.502 29.8195 29.4365 32.1079 27.0012 32.7783C24.5658 33.4487 22.4741 32.3747 22.4797 29.1623C22.4835 27.0752 23.3992 25.3777 24.7531 24.3637C23.6389 24.0744 22.9648 23.0678 22.9676 21.4396C22.9732 18.6635 24.9375 16.495 27.033 15.9182C29.1285 15.3415 31.0704 16.4566 31.0657 19.1644C31.0629 20.8394 30.3503 22.1587 29.267 23.0987V23.0978ZM27.0059 30.4843C28.2905 30.1304 29.2558 28.8561 29.2595 27.0209C29.2633 25.1858 28.2848 24.492 27.0339 24.8365C25.7999 25.1764 24.7494 26.4517 24.7466 28.2868C24.7428 30.122 25.7896 30.8195 27.0068 30.4843M27.0283 18.1204C25.9637 18.4135 25.1164 19.5408 25.1136 21.0089C25.1108 22.477 26.0049 23.125 27.0536 22.8366C28.1023 22.5482 28.9318 21.4256 28.9346 19.934C28.9375 18.5343 28.1107 17.8227 27.0283 18.1204Z" fill="white"/>
</svg>
